<svg xmlns="http://www.w3.org/2000/svg" width="720" height="320" viewBox="0 0 720 320" fill="none" role="img" aria-labelledby="title desc">
  <title id="title">Word of Mouth stacked logo</title>
  <desc id="desc">Stacked Word of Mouth logo using the official uploaded parrot mark.</desc>
  <g transform="translate(48,64)">
    <text x="0" y="72" font-family="Arial, Helvetica, sans-serif" font-size="66" font-weight="400" letter-spacing="1.8" fill="#F5F5F5">W</text>
    <g transform="translate(69 0) scale(0.075)">
      <path d="M 374 17 L 344 19 L 299 27 L 259 39 L 230 51 L 201 66 L 170 86 L 140 110 L 109 141 L 85 171 L 65 202 L 49 233 L 38 260 L 28 292 L 20 331 L 17 357 L 16 393 L 18 427 L 26 473 L 38 513 L 49 540 L 65 571 L 85 602 L 109 632 L 140 663 L 166 684 L 191 701 L 228 721 L 259 734 L 295 745 L 330 752 L 355 755 L 395 756 L 422 754 L 422 587 L 438 585 L 438 560 L 372 561 L 372 585 L 394 585 L 396 587 L 396 727 L 359 728 L 322 723 L 279 712 L 248 700 L 220 686 L 191 668 L 157 641 L 120 602 L 93 564 L 72 524 L 57 483 L 47 439 L 44 412 L 44 361 L 47 334 L 60 280 L 76 240 L 87 219 L 104 192 L 131 158 L 157 132 L 184 110 L 218 88 L 250 72 L 279 61 L 317 51 L 348 46 L 382 44 L 423 46 L 454 51 L 501 64 L 525 74 L 558 91 L 591 113 L 614 132 L 639 157 L 659 181 L 678 209 L 698 247 L 711 280 L 721 318 L 726 350 L 727 411 L 723 444 L 716 476 L 698 526 L 678 564 L 659 592 L 640 615 L 613 642 L 603 650 L 603 683 L 606 683 L 625 668 L 660 634 L 690 596 L 713 558 L 730 521 L 743 481 L 753 426 L 755 381 L 753 347 L 747 309 L 733 260 L 720 229 L 707 204 L 683 167 L 661 140 L 632 111 L 601 86 L 575 69 L 543 52 L 520 42 L 480 29 L 448 22 L 414 18 Z" fill="#F5F5F5" fill-rule="evenodd" clip-rule="evenodd"/>
      <path d="M 475 518 L 485 628 L 519 660 L 544 692 L 560 724 L 566 754 L 568 754 L 572 728 L 572 692 L 566 655 L 556 624 L 541 593 L 523 566 L 509 549 L 477 518 Z M 383 226 L 375 234 L 369 246 L 369 262 L 375 276 L 382 286 L 417 322 L 468 369 L 513 406 L 539 425 L 544 426 L 510 357 L 506 346 L 511 346 L 530 361 L 533 361 L 533 359 L 514 324 L 489 287 L 474 269 L 456 251 L 439 237 L 425 228 L 402 218 L 394 219 Z M 234 139 L 220 152 L 219 156 L 230 151 L 242 148 L 266 148 L 281 154 L 290 166 L 293 176 L 293 188 L 290 203 L 283 224 L 271 243 L 271 247 L 283 260 L 287 267 L 291 284 L 293 322 L 296 339 L 304 362 L 319 390 L 340 416 L 371 442 L 398 459 L 411 465 L 424 469 L 436 468 L 439 463 L 404 428 L 388 407 L 370 378 L 355 345 L 347 318 L 345 304 L 345 283 L 347 266 L 351 251 L 358 237 L 369 224 L 379 217 L 389 213 L 401 211 L 401 209 L 395 203 L 396 200 L 401 200 L 406 203 L 409 203 L 408 199 L 389 175 L 368 156 L 349 144 L 323 133 L 301 128 L 273 127 L 254 130 Z" fill="#DB3235" fill-rule="evenodd" clip-rule="evenodd"/>
      <path d="M 488 662 L 483 663 L 478 757 L 471 811 L 469 815 L 466 837 L 462 849 L 462 857 L 455 879 L 454 887 L 451 893 L 451 899 L 444 913 L 443 922 L 439 928 L 436 939 L 424 964 L 433 964 L 455 938 L 455 936 L 474 910 L 476 904 L 479 901 L 479 898 L 484 891 L 484 888 L 487 886 L 488 881 L 492 875 L 493 869 L 500 853 L 500 849 L 503 844 L 507 828 L 513 782 L 511 739 L 505 714 L 505 708 L 497 684 L 489 668 Z M 359 273 L 355 281 L 355 304 L 358 319 L 362 327 L 364 336 L 383 368 L 391 375 L 391 377 L 397 382 L 399 386 L 403 387 L 409 395 L 418 401 L 426 410 L 435 416 L 474 450 L 478 451 L 480 454 L 500 469 L 519 480 L 532 490 L 549 499 L 559 500 L 560 494 L 557 484 L 554 479 L 551 465 L 546 457 L 538 433 L 533 428 L 513 418 L 511 415 L 478 392 L 475 388 L 470 386 L 463 378 L 457 375 L 388 305 L 387 301 L 383 299 L 381 295 L 375 290 L 367 278 L 361 273 Z" fill="#3DBC55" fill-rule="evenodd" clip-rule="evenodd"/>
      <path d="M 485 637 L 485 653 L 501 668 L 511 682 L 520 703 L 524 724 L 525 758 L 518 813 L 510 848 L 513 848 L 531 818 L 542 791 L 549 759 L 549 729 L 542 701 L 530 679 L 520 666 L 503 649 L 489 638 Z M 423 420 L 426 426 L 466 471 L 492 503 L 492 505 L 533 563 L 548 587 L 559 610 L 561 610 L 561 599 L 555 550 L 558 549 L 567 561 L 569 561 L 569 557 L 559 519 L 552 512 L 550 512 L 440 430 L 426 420 Z" fill="#4B86EC" fill-rule="evenodd" clip-rule="evenodd"/>
      <path d="M 279 221 L 275 230 L 278 228 Z M 285 207 L 281 218 L 283 217 Z M 223 176 L 237 180 L 252 188 L 262 198 L 264 205 L 261 196 L 250 185 Z" fill="#FFFFFF" fill-rule="evenodd" clip-rule="evenodd"/>
      <path d="M 213 176 L 209 181 L 200 202 L 200 226 L 204 234 L 214 244 L 228 251 L 234 252 L 227 239 L 224 229 L 255 228 L 262 216 L 262 203 L 258 196 L 245 186 L 231 180 Z M 381 548 L 381 550 L 389 547 L 396 546 L 415 547 L 447 558 L 447 556 L 440 552 L 439 549 L 434 549 L 427 545 L 412 541 L 396 541 L 387 544 Z M 434 475 L 438 546 L 440 546 L 442 513 L 439 487 L 436 475 Z M 255 156 L 253 157 L 253 160 L 251 162 L 248 162 L 247 167 L 251 173 L 260 174 L 265 169 L 265 162 L 262 158 Z" fill="#050505" fill-rule="evenodd" clip-rule="evenodd"/>
    </g>
    <text x="136" y="72" font-family="Arial, Helvetica, sans-serif" font-size="66" font-weight="400" letter-spacing="1.8" fill="#F5F5F5">RD OF</text>
    <text x="121" y="142" font-family="Arial, Helvetica, sans-serif" font-size="66" font-weight="400" letter-spacing="1.8" fill="#F5F5F5">MOUTH</text>
    <text x="123" y="183" font-family="Arial, Helvetica, sans-serif" font-size="17" font-weight="400" letter-spacing="6.2" fill="#F5F5F5">DIGITAL MARKETING SOLUTION</text>
  </g>
</svg>
